# AST/ASF file generated using VICON BodyLanguage
# -----------------------------------------------
:version 1.10
:name VICON
:units
  mass 1.0
  length 0.45
  angle deg
:documentation
   .ast/.asf automatically generated from VICON data using
   VICON BodyBuilder and BodyLanguage model FoxedUp or BRILLIANT.MOD
:root
   order TX TY TZ RX RY RZ
   axis XYZ
   position 0 0 0  
   orientation 0 0 0 
:bonedata
  begin
     id 1 
     name lhipjoint
     direction 0.521452 -0.77106 0.36545 
     length 2.0933 
     axis 0 0 0  XYZ
  end
  begin
     id 2 
     name lfemur
     direction 0.34202 -0.939693 0  
     length 6.83441  
     axis 0 0 20  XYZ
    dof rx ry rz
    limits (-160.0 20.0)
           (-70.0 70.0)
           (-60.0 70.0)
  end
  begin
     id 3 
     name ltibia
     direction 0.34202 -0.939693 0   
     length 7.28749   
     axis 0 0 20   XYZ
    dof rx
    limits (-10.0 170.0)
  end
  begin
     id 4 
     name lfoot
     direction 0.100608 -0.276418 0.955757   
     length 1.52195   
     axis -90 7.62852e-016 20   XYZ
    dof rx rz
    limits (-45.0 90.0)
           (-70.0 20.0)
  end
  begin
     id 5 
     name ltoes
     direction 1.53558e-011 -4.21907e-011 1   
     length 0.770459   
     axis -90 7.62852e-016 20   XYZ
    dof rx
    limits (-90.0 20.0)
  end
  begin
     id 6 
     name rhipjoint
     direction -0.488071 -0.788702 0.373812   
     length 2.04648  
     axis 0 0 0  XYZ 
  end
  begin
     id 7 
     name rfemur
     direction -0.34202 -0.939693 0   
     length 6.92583   
     axis 0 0 -20   XYZ
    dof rx ry rz
    limits (-160.0 20.0)
           (-70.0 70.0)
           (-70.0 60.0)
  end
  begin
     id 8 
     name rtibia
     direction -0.34202 -0.939693 0   
     length 7.41043   
     axis 0 0 -20   XYZ
    dof rx
    limits (-10.0 170.0)
 end
 begin
     id 9 
     name rfoot
     direction -0.0784433 -0.215521 0.973343   
     length 1.67708  
     axis -90 -7.62852e-016 -20   XYZ
    dof rx rz
    limits (-45.0 90.0)
           (-20.0 70.0)
  end
  begin
     id 10 
     name rtoes
     direction -1.53551e-011 -4.21842e-011 1   
     length 0.849787   
     axis -90 -7.62852e-016 -20   XYZ
    dof rx
    limits (-90.0 20.0)
  end
  begin
     id 11 
     name lowerback
     direction -0.0122332 0.997575 -0.0685192   
     length 1.98724   
     axis 0 0 0   XYZ
    dof rx ry rz
    limits (-20.0 45.0)
           (-30.0 30.0)
           (-30.0 30.0)
  end
  begin
     id 12 
     name upperback
     direction 0.0182347 0.999724 -0.0148421   
     length 1.99029   
     axis 0 0 0   XYZ
    dof rx ry rz
    limits (-20.0 45.0)
           (-30.0 30.0)
           (-30.0 30.0)
  end
  begin
     id 13 
     name thorax
     direction 0.0242908 0.99956 0.0170184   
     length 1.99573   
     axis 0 0 0   XYZ
    dof rx ry rz
    limits (-20.0 45.0)
           (-30.0 30.0)
           (-30.0 30.0)
  end
  begin
     id 14 
     name lowerneck
     direction 0.0654488 0.985533 0.156338   
     length 1.4285   
     axis 0 0 0   XYZ
    dof rx ry rz
    limits (-20.0 45.0)
           (-30.0 30.0)
           (-30.0 30.0)
  end
  begin
     id 15 
     name upperneck
     direction -0.02953 0.998556 -0.0448842   
     length 1.44709   
     axis 0 0 0   XYZ
    dof rx ry rz
    limits (-20.0 45.0)
           (-30.0 30.0)
           (-30.0 30.0)
  end
  begin
     id 16
     name head
     direction -0.0155588 0.999386 -0.0314063  
     length 1.44689  
     axis 0 0 0   XYZ
    dof rx ry rz
    limits (-20.0 45.0)
           (-30.0 30.0)
           (-30.0 30.0)
  end
  begin
     id 17 
     name lclavicle
     direction 0.968229 0.236071 -0.0824755  
     length 3.60593  
     axis 0 0 0   XYZ
    dof ry rz
    limits (-20.0 10.0)
           (0.0 20.0)
  end
  begin
     id 18 
     name lhumerus
     direction 1 -4.48968e-011 7.8138e-029   
     length 5.06035   
     axis 180 -30 -90   XYZ
    dof rx ry rz
    limits (-60.0 90.0)
           (-90.0 90.0)
           (-90.0 90.0)
  end
  begin
     id 19
     name lradius
     direction 1 -4.48967e-011 9.02887e-028   
     length 3.1478   
     axis 180 -30 -90   XYZ
    dof rx
    limits (-10.0 170.0)
  end
  begin
     id 20
     name lwrist
     direction 1 -4.48961e-011 7.20928e-028   
     length 1.5739   
     axis -5.52449e-016 90 90   XYZ
    dof ry
    limits (-180.0 0.0)
 end
  begin
     id 21 
     name lhand
     direction 1 -4.48972e-011 1.44186e-027   
     length 0.606747   
     axis -9.20027e-016 90 90   XYZ
    dof rx rz
    limits (-90.0 90.0)
           (-45.0 45.0)
  end
  begin
     id 22 
     name lfingers
     direction 1 -4.48943e-011 2.88371e-027   
     length 0.489175   
     axis -1.84005e-015 90 90   XYZ
    dof rx
    limits (0.0 90.0)
  end
  begin
     id 23
     name lthumb
     direction 0.707107 -6.34917e-011 0.707107   
     length 0.70236   
     axis -90 45 2.85299e-015   XYZ
    dof rx rz
    limits (-45.0 45.0)
           (-45.0 45.0)
  end
  begin
     id 24 
     name rclavicle
     direction -0.978165 0.207816 0.0022268   
     length 3.35425  
     axis 0 0 0   XYZ 
    dof ry rz
    limits (-10.0 20.0)
           (-20.0 0.0)
  end
  begin
     id 25 
     name rhumerus
     direction -1 -4.48964e-011 -4.02159e-027  
     length 5.12273   
     axis 180 30 90   XYZ
    dof rx ry rz
    limits (-90.0 60.0)
           (-90.0 90.0)
           (-90.0 90.0)
  end
  begin
     id 26 
     name rradius
     direction -1 -4.48966e-011 1.62746e-027   
     length 3.422   
     axis 180 30 90   XYZ
    dof rx
    limits (-10.0 170.0)
  end
  begin
     id 27 
     name rwrist
     direction -1 -4.4896e-011 7.20928e-028   
     length 1.711   
     axis -5.52449e-016 -90 -90   XYZ
    dof ry
    limits (-180.0 0.0)
  end
  begin
     id 28
     name rhand
     direction -1 -4.48979e-011 1.44186e-027   
     length 0.704599   
     axis -9.20027e-016 -90 -90   XYZ
    dof rx rz
    limits (-90.0 90.0)
           (-45.0 45.0)
  end
  begin
     id 29
     name rfingers
     direction -1 -4.48962e-011 2.88371e-027   
     length 0.568066   
     axis -1.84005e-015 -90 -90   XYZ
    dof rx
    limits (0.0 90.0)
  end
  begin
     id 30
     name rthumb
     direction -0.707107 -6.34949e-011 0.707107   
     length 0.815633   
     axis -90 -45 -2.85299e-015   XYZ
    dof rx rz
    limits (-45.0 45.0)
           (-45.0 45.0)
  end
:hierarchy
  begin
    root lhipjoint rhipjoint lowerback
    lhipjoint lfemur
    lfemur ltibia
    ltibia lfoot
    lfoot ltoes
    rhipjoint rfemur
    rfemur rtibia
    rtibia rfoot
    rfoot rtoes
    lowerback upperback
    upperback thorax
    thorax lowerneck lclavicle rclavicle
    lowerneck upperneck
    upperneck head
    lclavicle lhumerus
    lhumerus lradius
    lradius lwrist
    lwrist lhand lthumb
    lhand lfingers
    rclavicle rhumerus
    rhumerus rradius
    rradius rwrist
    rwrist rhand rthumb
    rhand rfingers
  end

#!OML:ASF E:\id_vita\Project 1\Capture day 1\Session 1\Male1.ASF
:FULLY-SPECIFIED
:DEGREES
226
root 18.5346 15.732 -1.13944 689.77 79.4098 686.884
lowerback -5.06447 3.71379 3.48837
upperback 0.334821 4.75267 -0.366964
thorax 3.49605 2.43169 -1.93511
lowerneck -7.15876 1.26696 7.62894
upperneck 5.91167 0.905404 0.774219
head 3.2243 0.680967 -1.04152
rclavicle 2.86001e-014 1.43125e-014
rhumerus -6.28611 7.82148 -88.3805
rradius 40.9703
rwrist -4.70596
rhand -23.1992 39.481
rfingers 7.12502
rthumb 3.25075 9.52608
lclavicle 2.86001e-014 1.43125e-014
lhumerus -129.296 18.7182 -74.5309
lradius 11.8946
lwrist -109.596
lhand -14.0785 43.1227
lfingers 7.12502
lthumb 12.0534 72.7556
rfemur 27.2638 6.96805 27.8448
rtibia -6.36111e-014
rfoot -6.60038 6.92298
rtoes -5.78163
lfemur -35.6553 1.28267 -12.673
ltibia 29.6815
lfoot -14.2134 -0.245346
ltoes 9.55596
227
root 18.7761 15.7432 -1.14478 691.444 78.818 688.704
lowerback -5.20011 3.82188 3.37428
upperback 0.303275 4.89853 -0.348678
thorax 3.5373 2.50188 -1.8318
lowerneck -6.45391 1.1044 7.60077
upperneck 5.47456 0.772896 0.688145
head 2.93388 0.594576 -1.06947
rclavicle 5.38458e-014 -2.38542e-015
rhumerus -6.64979 8.18055 -88.6567
rradius 40.7968
rwrist -4.66489
rhand -22.9091 39.3276
rfingers 7.12502
rthumb 3.53092 9.37706
lclavicle 5.38458e-014 -2.38542e-015
lhumerus -129.005 17.9118 -75.1545
lradius 12.0108
lwrist -110.111
lhand -14.4437 43.9772
lfingers 7.12502
lthumb 11.7013 73.6304
rfemur 28.1087 7.50578 27.7188
rtibia -6.36111e-014
rfoot -4.36687 8.14189
rtoes -3.00233
lfemur -35.2838 1.8658 -12.723
ltibia 30.5171
lfoot -10.0968 -0.173424
ltoes 4.65793
228
root 19.024 15.7418 -1.16387 692.958 79.4304 690.253
lowerback -5.53631 3.5658 2.82624
upperback 0.242601 4.58702 -0.511636
thorax 3.61392 2.33829 -1.70533
lowerneck -6.73563 1.37395 7.70135
upperneck 6.0333 1.08123 0.732543
head 3.19341 0.770805 -1.05946
rclavicle 2.5345e-015 1.35174e-014
rhumerus -7.23438 8.44871 -88.9693
rradius 40.732
rwrist -4.58303
rhand -22.8868 39.3063
rfingers 7.12502
rthumb 3.5524 9.35619
lclavicle 2.5345e-015 1.35174e-014
lhumerus -128.613 17.3879 -75.3832
lradius 12.1516
lwrist -110.241
lhand -14.7057 44.5826
lfingers 7.12502
lthumb 11.4486 74.25
rfemur 28.7995 7.01013 26.9393
rtibia 5.40694e-014
rfoot -1.96959 9.3808
rtoes 0.508422
lfemur -35.1513 1.71231 -13.536
ltibia 31.1991
lfoot -8.15971 -0.52836
ltoes 8.55683
229
root 19.2618 15.7456 -1.17663 697.616 79.5981 694.891
lowerback -5.81905 3.5042 1.95394
upperback 0.162065 4.56717 -0.77897
thorax 3.64094 2.31436 -1.48366
lowerneck -7.18571 1.6551 7.72494
upperneck 6.7019 1.37562 1.04549
head 3.52199 0.955373 -0.943976
rclavicle -2.42269e-014 -3.97569e-015
rhumerus -7.84119 8.6468 -89.3397
rradius 40.7335
rwrist -4.73303
rhand -22.7114 39.2466
rfingers 7.12502
rthumb 3.72181 9.29938
lclavicle -2.42269e-014 -3.97569e-015
lhumerus -128.119 17.5765 -74.7621
lradius 12.1862
lwrist -109.348
lhand -14.6974 45.1757
lfingers 7.12502
lthumb 11.4566 74.8427
rfemur 25.1968 7.05824 25.8447
rtibia 8.40661
rfoot -3.25723 9.52025
rtoes 4.59529
lfemur -34.8978 2.00473 -14.6105
ltibia 31.8208
lfoot -6.62372 -0.667804
ltoes 10.1906
230
root 19.4977 15.7484 -1.18414 702.677 79.7668 700.04
lowerback -6.03729 3.47477 0.950632
upperback 0.159972 4.60815 -1.08286
thorax 3.70846 2.31973 -1.22208
lowerneck -8.12794 1.83893 7.04055
upperneck 7.69289 1.49438 2.19077
head 4.03861 1.08908 -0.42445
rclavicle -2.20651e-014 6.36111e-015
rhumerus -8.38775 8.58044 -89.7167
rradius 40.541
rwrist -4.72439
rhand -22.5808 39.3687
rfingers 7.12502
rthumb 3.84795 9.42371
lclavicle -2.20651e-014 6.36111e-015
lhumerus -128.142 17.5134 -75.0109
lradius 12.2558
lwrist -109.504
lhand -14.6238 45.1814
lfingers 7.12502
lthumb 11.5276 74.8445
rfemur 23.0902 7.06242 24.6796
rtibia 13.8475
rfoot -3.09863 9.77029
rtoes 3.07394
lfemur -34.4968 2.80395 -16.0264
ltibia 32.5066
lfoot -6.34499 -1.62448
ltoes 7.20055
231
root 19.7331 15.7465 -1.19132 707.604 80.2206 705.078
lowerback -6.2133 3.36385 -0.112142
upperback 0.128226 4.55161 -1.38797
thorax 3.71451 2.27576 -0.942019
lowerneck -7.81642 1.58976 7.52118
upperneck 7.40426 1.19084 1.59516
head 3.87828 0.91212 -0.731344
rclavicle -2.15868e-014 2.06736e-014
rhumerus -9.13111 8.3545 -90.0528
rradius 40.2997
rwrist -4.57617
rhand -22.5367 39.517
rfingers 7.12502
rthumb 3.8905 9.57274
lclavicle -2.15868e-014 2.06736e-014
lhumerus -127.854 17.8233 -74.7578
lradius 12.143
lwrist -109.303
lhand -14.8995 45.0424
lfingers 7.12502
lthumb 11.2616 74.7201
rfemur 21.4354 6.34891 23.3097
rtibia 18.3701
rfoot -2.59164 10.3021
rtoes 2.85606
lfemur -34.0883 3.81517 -17.7407
ltibia 33.3456
lfoot -7.55533 -3.045
ltoes 1.54462
232
root 19.9641 15.7525 -1.19574 712.604 80.6726 710.197
lowerback -6.31715 3.17393 -1.17371
upperback 0.0726231 4.39039 -1.6284
thorax 3.65156 2.18026 -0.611493
lowerneck -7.89472 1.58507 7.619
upperneck 7.56176 1.17453 1.4195
head 3.95324 0.903857 -0.808497
rclavicle -3.4545e-014 1.19271e-014
rhumerus -10.0191 8.36711 -90.3551
rradius 40.1558
rwrist -4.60236
rhand -22.5406 39.4021
rfingers 7.12502
rthumb 3.88678 9.45775
lclavicle -3.4545e-014 1.19271e-014
lhumerus -127.685 17.9461 -74.632
lradius 12.0377
lwrist -109.265
lhand -15.2769 44.9047
lfingers 7.12502
lthumb 10.8977 74.6019
rfemur 19.8808 5.65135 22.0249
rtibia 22.3998
rfoot 0.715755 11.1705
rtoes 10.2696
lfemur -33.6528 4.39866 -19.2564
ltibia 34.284
lfoot -9.85399 -3.4413
ltoes 2.61666
233
root 20.1835 15.7635 -1.19808 717.519 81.1799 715.203
lowerback -6.39427 2.87939 -2.23142
upperback 0.0698333 4.08994 -1.8057
thorax 3.63004 2.01535 -0.230652
lowerneck -7.70203 1.63066 7.88926
upperneck 7.35134 1.26153 1.00142
head 3.85272 0.925732 -0.993364
rclavicle 1.58065e-014 -1.27222e-014
rhumerus -10.7879 8.5764 -90.6746
rradius 39.9388
rwrist -4.65954
rhand -22.6113 39.1436
rfingers 7.12502
rthumb 3.81842 9.19809
lclavicle 1.58065e-014 -1.27222e-014
lhumerus -128.19 17.6067 -75.3426
lradius 12.1402
lwrist -110.012
lhand -15.098 44.6808
lfingers 7.12502
lthumb 11.0703 74.3689
rfemur 18.3392 5.01085 20.9175
rtibia 26.1036
rfoot 3.35683 11.4063
rtoes 15.857
lfemur -33.2842 4.56768 -20.5421
ltibia 35.1797
lfoot -10.8758 -4.19152
ltoes -3.32132
234
root 20.3929 15.7723 -1.20149 721.812 81.6308 719.579
lowerback -6.33438 2.61016 -3.09487
upperback 0.0974505 3.80404 -1.95557
thorax 3.58277 1.86135 0.0660001
lowerneck -7.5452 1.61656 8.20225
upperneck 6.97755 1.26264 0.605126
head 3.69976 0.90286 -1.1831
rclavicle 1.5294e-014 9.54166e-015
rhumerus -11.5074 8.65736 -91.026
rradius 39.6635
rwrist -4.82529
rhand -22.4644 38.969
rfingers 7.12502
rthumb 3.96032 9.02604
lclavicle 1.5294e-014 9.54166e-015
lhumerus -128.432 18.1887 -74.8476
lradius 12.0837
lwrist -109.376
lhand -14.5948 44.6165
lfingers 7.12502
lthumb 11.5555 74.278
rfemur 16.8584 4.47592 20.0361
rtibia 29.6393
rfoot 5.71394 11.6556
rtoes 20.4946
lfemur -32.8983 4.72655 -21.6087
ltibia 35.8893
lfoot -11.5615 -4.76695
ltoes -2.20155
235
root 20.6044 15.7886 -1.20837 724.615 81.7997 722.596
lowerback -5.99733 2.54066 -3.57232
upperback 0.082815 3.73579 -2.07005
thorax 3.35775 1.82535 0.189478
lowerneck -7.70865 1.57324 8.08141
upperneck 6.97527 1.19338 0.707369
head 3.7247 0.870185 -1.13085
rclavicle 4.96573e-014 -2.38542e-015
rhumerus -12.409 8.23467 -91.338
rradius 39.3242
rwrist -4.79731
rhand -22.2974 39.0438
rfingers 7.12502
rthumb 4.12161 9.10391
lclavicle 4.96573e-014 -2.38542e-015
lhumerus -128.487 19.0912 -74.0628
lradius 11.9343
lwrist -108.668
lhand -14.2839 44.3343
lfingers 7.12502
lthumb 11.8554 73.9787
rfemur 15.5094 4.16329 19.3521
rtibia 33.0908
rfoot 8.10574 12.0993
rtoes 22.4962
lfemur -32.2048 4.91303 -22.3228
ltibia 36.4032
lfoot -12.2777 -4.81988
ltoes -1.76269
236
root 20.8126 15.8137 -1.22277 727.126 81.8782 725.362
lowerback -5.56494 2.50253 -3.90243
upperback 0.0239175 3.68708 -2.16931
thorax 3.04172 1.80412 0.243001
lowerneck -7.69876 1.53483 7.90713
upperneck 7.02143 1.15449 0.784944
head 3.73346 0.85081 -1.07582
rclavicle -2.52332e-014 9.54166e-015
rhumerus -13.3429 7.70185 -91.6174
rradius 38.8295
rwrist -4.48738
rhand -22.2467 39.1733
rfingers 7.12502
rthumb 4.17051 9.23437
lclavicle -2.52332e-014 9.54166e-015
lhumerus -128.728 19.7289 -73.6857
lradius 11.8347
lwrist -108.445
lhand -14.1122 43.8494
lfingers 7.12502
lthumb 12.0209 73.4842
rfemur 14.1734 3.83868 18.6442
rtibia 36.3953
rfoot 10.5195 12.6249
rtoes 21.1667
lfemur -31.307 5.02712 -22.9741
ltibia 36.7337
lfoot -12.9286 -4.72939
ltoes -0.556982
237
root 21.0152 15.839 -1.24102 728.987 81.928 727.411
lowerback -5.21484 2.39158 -4.12695
upperback 0.000587073 3.53419 -2.20448
thorax 2.81477 1.73017 0.30224
lowerneck -7.28515 1.58967 7.89147
upperneck 6.63322 1.29024 0.619882
head 3.52262 0.895189 -1.12078
rclavicle 3.10881e-014 -7.95139e-016
rhumerus -14.2002 7.53023 -91.8917
rradius 38.3503
rwrist -4.28941
rhand -22.0827 38.9417
rfingers 7.12502
rthumb 4.32887 9.00593
lclavicle 3.10881e-014 -7.95139e-016
lhumerus -129.458 19.9828 -73.8592
lradius 11.8206
lwrist -108.624
lhand -13.959 43.2531
lfingers 7.12502
lthumb 12.1687 72.8791
rfemur 12.6926 3.56943 18.0964
rtibia 39.5663
rfoot 13.1584 12.8395
rtoes 19.1841
lfemur -30.4143 5.12621 -23.5094
ltibia 36.9273
lfoot -13.5748 -4.78549
ltoes 1.00971
238
root 21.2227 15.8686 -1.25887 730.14 82.0519 728.777
lowerback -4.98625 2.22991 -4.24765
upperback 0.0568287 3.31302 -2.16909
thorax 2.74316 1.61883 0.381126
lowerneck -6.8784 1.6648 7.96216
upperneck 6.21331 1.45441 0.272907
head 3.30994 0.947832 -1.24062
rclavicle 1.50145e-014 -7.95139e-015
rhumerus -15.0736 7.41893 -92.1458
rradius 37.8849
rwrist -4.14263
rhand -21.9098 39.0211
rfingers 7.12502
rthumb 4.49585 9.08886
lclavicle 1.50145e-014 -7.95139e-015
lhumerus -130.479 19.9245 -74.4934
lradius 11.8006
lwrist -109.277
lhand -13.8639 42.7642
lfingers 7.12502
lthumb 12.2604 72.3849
rfemur 11.3133 3.32941 17.7351
rtibia 42.6293
rfoot 16.1274 12.6293
rtoes 15.6213
lfemur -29.3869 5.19971 -23.8837
ltibia 37.0261
lfoot -14.559 -4.8005
ltoes 1.90054
239
root 21.4265 15.8917 -1.27755 731.365 82.3133 730.269
lowerback -4.73427 2.04605 -4.35086
upperback 0.0920096 3.05851 -2.13336
thorax 2.63988 1.49202 0.4483
lowerneck -6.9259 1.68282 7.98551
upperneck 6.36159 1.48164 0.0615224
head 3.37578 0.956946 -1.31455
rclavicle 4.27698e-015 9.54166e-015
rhumerus -16.0422 7.22169 -92.3997
rradius 37.3106
rwrist -4.03954
rhand -21.7389 38.9744
rfingers 7.12502
rthumb 4.66091 9.04568
lclavicle 4.27698e-015 9.54166e-015
lhumerus -131.442 19.9257 -75.1009
lradius 11.7479
lwrist -110.055
lhand -13.9043 42.4296
lfingers 7.12502
lthumb 12.2213 72.0525
rfemur 10.0606 2.94009 17.4004
rtibia 45.6239
rfoot 18.804 12.1557
rtoes 14.4257
lfemur -28.2595 5.1107 -24.2068
ltibia 37.0886
lfoot -15.6008 -4.63698
ltoes 2.86191
240
root 21.6193 15.9113 -1.29288 731.593 82.3779 730.7
lowerback -4.41625 1.96824 -4.38
upperback 0.114419 2.93469 -2.07571
thorax 2.48462 1.43196 0.503475
lowerneck -7.81638 1.76369 7.68411
upperneck 7.22182 1.48856 0.480571
head 3.8421 0.999371 -1.11934
rclavicle -3.74336e-014 -3.97569e-014
rhumerus -16.8789 6.89865 -92.5875
rradius 36.609
rwrist -3.7823
rhand -21.6504 38.7163
rfingers 7.12502
rthumb 4.74634 8.7895
lclavicle -3.74336e-014 -3.97569e-014
lhumerus -133.746 18.0284 -78.5562
lradius 12.11
lwrist -114.448
lhand -14.1198 41.7021
lfingers 7.12502
lthumb 12.0136 71.3373
rfemur 8.61196 2.68795 17.1975
rtibia 48.4937
rfoot 20.9769 11.2984
rtoes 10.0516
lfemur -27.2181 5.22909 -24.3719
ltibia 37.0506
lfoot -16.487 -4.47781
ltoes 3.52918
